<svg xmlns="http://www.w3.org/2000/svg" viewBox="0 0 974 480"><g transform="translate(1 1)" stroke="#8492A5"><path fill="#FEFEFE" stroke-width="2" d="M620.9 64.9h-496c-13.5 0-25 11.1-25 24.8v326.2h546V89.7c0-13.7-11.5-24.8-25-24.8z"/><circle fill="none" stroke-width="2" cx="373.9" cy="83.9" r="4"/><path fill="#FDFDFD" stroke-width="2" d="M667.7 446.9H78.2c-30.6 0-51.3-10.5-51.3-15v-13.6c0-1.3 1.3-2.4 3-2.4H716c1.7 0 3 1.1 3 2.4v14.1c0 3.6-16 14.5-51.3 14.5z"/><path fill="none" stroke-linecap="square" d="M27.4 430.4h689.7"/><path fill="#FFF" d="M121.9 103.9H623v292H121.9zM447.9 416.9v3.1c0 2.2-4.3 2.9-7.6 2.9H305.7c-3.5 0-7.8-.7-7.8-2.9v-3.1"/></g><g transform="translate(576 177)" stroke="#7E89A3"><path stroke-width="2" d="M363.7 174.5c0 7.3-6 13.3-13.4 13.3h-81.4c-7.4 0-13.4-6-13.4-13.3V-26.7c0-7.3 6-13.3 13.4-13.3h81.4c7.4 0 13.4 6 13.4 13.3v201.2z"/><path fill="#FFF" d="M263-10.1h93.1v165.6H263z"/><path fill="none" d="M319.6-18.6c0 .5-.4 1-.8 1h-16.7c-.5 0-.8-.4-.8-1v-2.1c0-.5.4-1 .8-1h16.7c.4 0 .8.4.8 1v2.1z"/><circle fill="none" cx="310.4" cy="-30.1" r="2.5"/><ellipse fill="none" cx="309.7" cy="171.2" rx="8.3" ry="8.3"/></g><text transform="translate(235.996 192.994)" font-family="'Avenir-Black'" font-size="48">HERO TEXT</text><text transform="translate(867.377 193.294)" font-family="'Avenir-Black'" font-size="6.197">HERO TEXT</text></svg>