<svg xmlns="http://www.w3.org/2000/svg" viewBox="-37.9 -38.9 1328.9 910.9">
<g transform="translate(681 55)" stroke="#7E89A3"><path fill="#FDFDFD" stroke-width="2" d="M476.4 280H285.5c-6.6 0-12-5.4-12-12V-24.9c0-6.6 5.4-12 12-12h190.9c6.6 0 12 5.4 12 12V268c0 6.6-5.4 12-12 12z"/><path fill="#FDFDFD" stroke-width="2" d="M476.4 280H285.5c-6.6 0-12-5.4-12-12V-24.9c0-6.6 5.4-12 12-12h190.9c6.6 0 12 5.4 12 12V268c0 6.6-5.4 12-12 12z"/><path fill="#FFF" d="M290.4-5h182v252.9h-182z"/><circle fill="none" cx="381.4" cy="263" r="8"/><circle fill="none" cx="380.4" cy="-20" r="3"/></g><g transform="translate(1 1)" stroke="#8492A5"><path fill="#FEFEFE" stroke-width="2" d="M594 0H98C84.5 0 73 11.1 73 24.8V351h546V24.8C619 11.1 607.5 0 594 0z"/><circle fill="none" stroke-width="2" cx="347" cy="19" r="4"/><path fill="#FDFDFD" stroke-width="2" d="M640.8 382H51.3C20.6 382 0 371.5 0 367v-13.6c0-1.3 1.3-2.4 3-2.4h686.1c1.7 0 3 1.1 3 2.4v14.1c0 3.6-16 14.5-51.3 14.5z"/><path fill="none" stroke-linecap="square" d="M.5 365.5h689.7"/><path fill="#FFF" d="M95 39h501.1v292H95zM421 352v3.1c0 2.2-4.3 2.9-7.6 2.9H278.8c-3.5 0-7.8-.7-7.8-2.9V352"/></g><path fill="none" stroke="#5C9CE5" stroke-width="4" d="M538.1 68.8v238"/><path fill="#5C9CE5" d="M523.3 80l14.8-6.3 14.8 6.3-14.8-35.1M538.1 330.9c-4.2-11.4-11.4-25.5-19-34.2l19 6.9 19-6.9c-7.6 8.8-14.8 22.9-19 34.2z"/><path fill="none" d="M249.4 606.4h345.1v171.3H249.4z"/><text transform="translate(249.45 631.91)"><tspan x="0" y="0" font-family="'MyriadPro-Regular'" font-size="36">vmax: use the </tspan><tspan x="213.8" y="0" fill="#EA9BE6" font-family="'MyriadPro-Bold'" font-size="36">largest </tspan><tspan x="0" y="43.2" font-family="'MyriadPro-Regular'" font-size="36">of the viewport width </tspan><tspan x="0" y="86.4" font-family="'MyriadPro-Regular'" font-size="36">or height.</tspan></text><path fill="none" d="M664.2 96.1h249.4v183.8H664.2z"/><text transform="translate(664.21 121.655)"><tspan x="0" y="0" font-family="'MyriadPro-Regular'" font-size="36">vmin: use the </tspan><tspan x="0" y="43.2" fill="#4DB0FD" font-family="'MyriadPro-Bold'" font-size="36">smallest</tspan><tspan x="133.2" y="43.2" font-family="'MyriadPro-Bold'" font-size="36"> </tspan><tspan x="140.5" y="43.2" font-family="'MyriadPro-Regular'" font-size="36">of the </tspan><tspan x="0" y="86.4" font-family="'MyriadPro-Regular'" font-size="36">viewport width </tspan><tspan x="0" y="129.6" font-family="'MyriadPro-Regular'" font-size="36">or height.</tspan></text><path fill="none" stroke="#6694DC" stroke-width="4" d="M1129.5 119.1H995.6"/><path fill="#6694DC" d="M1118.3 104.3l6.3 14.8-6.3 14.8 35.1-14.8M971.4 119.1c11.4-4.2 25.5-11.4 34.2-19l-6.9 19 6.9 19c-8.7-7.6-22.8-14.8-34.2-19z"/><g transform="translate(576 177)" stroke="#7E89A3"><path fill="#FDFDFD" stroke-width="2" d="M-393.9 615.6c0 7.3-6 13.3-13.4 13.3h-81.4c-7.4 0-13.4-6-13.4-13.3V414.4c0-7.3 6-13.3 13.4-13.3h81.4c7.4 0 13.4 6 13.4 13.3v201.2z"/><path fill="#FFF" d="M-494.5 431h93.1v165.6h-93.1z"/><path fill="none" d="M-438 422.5c0 .5-.4 1-.8 1h-16.7c-.5 0-.8-.4-.8-1v-2.1c0-.5.4-1 .8-1h16.7c.4 0 .8.4.8 1v2.1z"/><circle fill="none" cx="-447.1" cy="411" r="2.5"/><ellipse fill="none" cx="-447.9" cy="612.3" rx="8.3" ry="8.3"/></g><g><path fill="none" stroke="#ED9CE5" stroke-width="4" d="M131.4 633.9v112.9"/><path fill="#ED9CE5" d="M116.6 645.1l14.8-6.3 14.8 6.3-14.8-35.1M131.4 770.9c-4.2-11.4-11.4-25.5-19-34.2l19 6.9 19-6.9c-7.6 8.8-14.8 22.9-19 34.2z"/></g><g transform="translate(1 1)" stroke="#8492A5"><path fill="#FEFEFE" stroke-width="2" d="M1118 496.6H687c-11.7 0-21.7 9.6-21.7 21.5v283.5h474.5V518.1c0-11.9-10-21.5-21.8-21.5z"/><circle fill="none" stroke-width="2" cx="903.4" cy="513.1" r="3.5"/><path fill="#FDFDFD" stroke-width="2" d="M1158.7 828.5H646.4c-26.6 0-44.6-9.1-44.6-13v-11.8c0-1.2 1.2-2.1 2.6-2.1h596.2c1.4 0 2.6.9 2.6 2.1V816c.1 3.1-13.8 12.5-44.5 12.5z"/><path fill="none" stroke-linecap="square" d="M602.3 814.2h599.4"/><path fill="#FFF" d="M684.4 530.5h435.4v253.8H684.4zM967.7 802.5v2.7c0 1.9-3.8 2.5-6.6 2.5h-117c-3 0-6.8-.6-6.8-2.5v-2.7"/></g><g><path fill="none" stroke="#ED9CE5" stroke-width="4" d="M717 658.3h379.7"/><path fill="#ED9CE5" d="M728.2 673.2l-6.3-14.9 6.3-14.8-35.1 14.8M1120.8 658.3c-11.4 4.2-25.5 11.4-34.2 19l6.9-19-6.9-19c8.8 7.6 22.9 14.8 34.2 19z"/></g></svg>